# xmcd
#
# Track frame offsets:
#	150
#	20599
#	39608
#	57529
#	72372
#	89449
#	103732
#	124212
#	141612
#	160460
#	178242
#	189408
#	203417
#	221852
#	237207
#
# Disc length: 3400 seconds
#
# Revision: 6
# Processed by: cddbd v1.5.2PL0 Copyright (c) Steve Scherf et al.
# Submitted via: EasyCDDAExtractor 16.0.6.1
#
DISCID=eb0d460f
DTITLE=Ana Carolina - Estampado
DYEAR=2003
DGENRE=MPB
TTITLE0=Hoje Eu Tô Sozinha
TTITLE1=Encostar na Tua
TTITLE2=2 Bicudos
TTITLE3=Elevador (Livro do Esquecimento)
TTITLE4=Só fala em mim
TTITLE5=É hora da virada
TTITLE6=Uma louca tempestade
TTITLE7=Pra rua me levar
TTITLE8=É Mágoa
TTITLE9=Mais Que Isso
TTITLE10=Vox Populi
TTITLE11=Vestido Estampado
TTITLE12=Nua
TTITLE13=Não Fale Desse Jeito
TTITLE14=O Beat da Beata
EXTD=
EXTT0=
EXTT1=
EXTT2=
EXTT3=
EXTT4=
EXTT5=
EXTT6=
EXTT7=
EXTT8=
EXTT9=
EXTT10=
EXTT11=
EXTT12=
EXTT13=
EXTT14=
PLAYORDER=
